<svg width="64" height="64" viewBox="0 0 64 64" fill="none" xmlns="http://www.w3.org/2000/svg">
  <defs>
    <linearGradient id="bg" x1="10" y1="8" x2="56" y2="58" gradientUnits="userSpaceOnUse">
      <stop stop-color="#123C6B"/>
      <stop offset="0.55" stop-color="#0D6E6E"/>
      <stop offset="1" stop-color="#16A085"/>
    </linearGradient>
    <linearGradient id="accent" x1="21" y1="18" x2="48" y2="46" gradientUnits="userSpaceOnUse">
      <stop stop-color="#FFE08A"/>
      <stop offset="1" stop-color="#FFB347"/>
    </linearGradient>
  </defs>
  <rect x="4" y="4" width="56" height="56" rx="18" fill="url(#bg)"/>
  <path d="M32 12L46 17.5V28C46 38.5 39.7 47.72 32 52C24.3 47.72 18 38.5 18 28V17.5L32 12Z" fill="#F7FBFF"/>
  <path d="M23.5 33.5C27 29.3 30.1 27.2 33 27.2C35.1 27.2 36.9 28.05 38.55 29.75C40.1 31.35 41.4 32.15 42.5 32.15C43.95 32.15 45.3 31.25 46.55 29.45L48.8 31.35C46.95 34.1 44.7 35.48 42.05 35.48C39.95 35.48 37.98 34.57 36.12 32.72C34.82 31.44 33.48 30.8 32.1 30.8C30.05 30.8 27.6 32.5 24.75 35.92L23.5 33.5Z" fill="url(#accent)"/>
  <path d="M25 21.5L28.3 24.8L32 19.7" stroke="#0F5B6C" stroke-width="3" stroke-linecap="round" stroke-linejoin="round"/>
  <path d="M47.5 15.5L48.33 17.67L50.5 18.5L48.33 19.33L47.5 21.5L46.67 19.33L44.5 18.5L46.67 17.67L47.5 15.5Z" fill="#FFE08A"/>
  <circle cx="20" cy="18" r="2" fill="#7DE3D6" fill-opacity="0.9"/>
  <circle cx="18.5" cy="44.5" r="1.5" fill="#B9FFF5" fill-opacity="0.85"/>
</svg>